# xmcd
#
# Track frame offsets:
#	150
#	18064
#	31760
#	45621
#	63470
#	79177
#	94520
#	110569
#	127036
#	142009
#	158548
#	173245
#	186892
#	202650
#	221181
#	239540
#	254436
#	268588
#	284186
#	303123
#	320162
#
# Disc length: 4525 seconds
#
# Revision: 1
# Processed by: cddbd v1.5.2PL0 Copyright (c) Steve Scherf et al.
# Submitted via: audiograbber 1.83.01
#
DISCID=3011ab15
DTITLE=Various Artist - So Country 2015 [Disc 1]
DYEAR=2015
DGENRE=Country
TTITLE0=Carrie Underwood - Something In The Water
TTITLE1=Brad Paisley - River Bank
TTITLE2=Kenny Chesney - American Kids
TTITLE3=Keith Urban - Somewhere In My Car
TTITLE4=Adam Harvey - Family Life
TTITLE5=Dolly Parton - Home
TTITLE6=O'Shea featuring Steve Wariner - Bad Day Good
TTITLE7=Chris Young - Lonely Eyes
TTITLE8=Lady Antebellum - Bartender
TTITLE9=Florida Georgia Line - Dirt
TTITLE10=Adam Brand - Hearts I Left Behind
TTITLE11=Little Big Town - Day Drinking
TTITLE12=Melinda Schneider and Beccy Cole - 9 To 5
TTITLE13=Adam Eckersley Band - Tomorrow Night, Same Again
TTITLE14=The McClymonts - Forever Begins Tonight
TTITLE15=Kacey Musgraves - Keep It To Yourself
TTITLE16=Lyn Bowtell - Heart Of Sorrow
TTITLE17=Lee Brice - Drinking Class
TTITLE18=Eric Church - Give Me Back My Hometown
TTITLE19=Eric Paslay - Song About A Girl
TTITLE20=Logan Mize - Can't Get Away From A Good Time
EXTD=
EXTT0=
EXTT1=
EXTT2=
EXTT3=
EXTT4=
EXTT5=
EXTT6=
EXTT7=
EXTT8=
EXTT9=
EXTT10=
EXTT11=
EXTT12=
EXTT13=
EXTT14=
EXTT15=
EXTT16=
EXTT17=
EXTT18=
EXTT19=
EXTT20=
PLAYORDER=
